# xmcd
#
# Track frame offsets:
#	150
#	13537
#	33145
#	41926
#	51739
#	60024
#	66159
#	80040
#	85910
#	90241
#	114658
#	133733
#	141940
#	148362
#	160713
#	180214
#	191281
#	196140
#	207605
#	223789
#
# Disc length: 3161 seconds
#
# Revision: 0
# Processed by: cddbd v1.5.2PL0 Copyright (c) Steve Scherf et al.
# Submitted via: EZCDAudioConverter 2.1.7.1
#
DISCID=200c5714
DTITLE=Sven Libaek - The Set (Ost)
DYEAR=1900
DGENRE=
TTITLE0=Start Growing Up Now
TTITLE1=The Set (Unsophiticated Little Innocent)
TTITLE2=Thoughts Of Regret
TTITLE3=You'll Love It
TTITLE4=Love Me
TTITLE5=Night Ride
TTITLE6=Suicide
TTITLE7=That's Peg's Affair
TTITLE8=Touching Hands
TTITLE9=Opus 13
TTITLE10=The Fate Of Life
TTITLE11=Come And See
TTITLE12=That's Peg's Affair [Solo Guitar]
TTITLE13=That's What I'm After
TTITLE14=The Youngsters
TTITLE15=Where The Daring Go
TTITLE16=To The Maestro
TTITLE17=Partytime At Bronski's
TTITLE18=Start Growing Up Now [Instrumental]
TTITLE19=Unsophisticated Little Innocent [Vocal]
EXTD=
EXTT0=
EXTT1=
EXTT2=
EXTT3=
EXTT4=
EXTT5=
EXTT6=
EXTT7=
EXTT8=
EXTT9=
EXTT10=
EXTT11=
EXTT12=
EXTT13=
EXTT14=
EXTT15=
EXTT16=
EXTT17=
EXTT18=
EXTT19=
PLAYORDER=
